<?xml version="1.0" encoding="UTF-8"?>
<svg width="9px" height="19px" viewBox="0 0 9 19" version="1.1" xmlns="http://www.w3.org/2000/svg" xmlns:xlink="http://www.w3.org/1999/xlink">
    <!-- Generator: Sketch 49.1 (51147) - http://www.bohemiancoding.com/sketch -->
    <title>facebook</title>
    <desc>Created with Sketch.</desc>
    <defs></defs>
    <g id="Page-1" stroke="none" stroke-width="1" fill="none" fill-rule="evenodd">
        <g id="Nobilux---Contacts" transform="translate(-966.000000, -62.000000)" fill="#2B73C6">
            <g id="Nav-Header">
                <g id="facebook" transform="translate(966.000000, 62.000000)">
                    <path d="M9,6.15228731 L5.93491625,6.15228731 L5.93491625,4.18031463 C5.93491625,3.43974332 6.43527263,3.26708756 6.7876871,3.26708756 C7.13929971,3.26708756 8.95068603,3.26708756 8.95068603,3.26708756 L8.95068603,0.0114055061 L5.9718015,0 C2.66495902,0 1.91241981,2.42819292 1.91241981,3.9820948 L1.91241981,6.15228731 L0,6.15228731 L0,9.50707928 L1.91241981,9.50707928 C1.91241981,13.8124612 1.91241981,19 1.91241981,19 L5.93491625,19 C5.93491625,19 5.93491625,13.7613331 5.93491625,9.50707928 L8.64918924,9.50707928 L9,6.15228731 Z"></path>
                </g>
            </g>
        </g>
    </g>
</svg>