<?xml version="1.0" encoding="UTF-8"?>
<svg width="10px" height="15px" viewBox="0 0 10 15" version="1.1" xmlns="http://www.w3.org/2000/svg" xmlns:xlink="http://www.w3.org/1999/xlink">
    <!-- Generator: Sketch 49.1 (51147) - http://www.bohemiancoding.com/sketch -->
    <title>ico-location</title>
    <desc>Created with Sketch.</desc>
    <defs></defs>
    <g id="Page-1" stroke="none" stroke-width="1" fill="none" fill-rule="evenodd">
        <g id="Nobilux---Contacts" transform="translate(-849.000000, -13.000000)" fill="#A8A8A8" fill-rule="nonzero">
            <g id="Top-menu" transform="translate(453.000000, 7.000000)">
                <g id="ico-location" transform="translate(396.000000, 6.000000)">
                    <path d="M5,0.059061236 C2.24449833,0.059061236 0,2.32878034 0,5.11523596 C0,6.17433708 0.401711667,7.55780899 0.901041667,8.40702809 L4.56770833,14.6429831 C4.65723124,14.7986853 4.82189394,14.8944834 5,14.8944834 C5.17810606,14.8944834 5.34276876,14.7986853 5.43229167,14.6429831 L9.09895833,8.40702809 C9.59829667,7.55779213 10,6.17433708 10,5.11523596 C10,2.32878034 7.75550333,0.059061236 5,0.059061236 Z M5,3.59838202 C5.83435,3.59838202 6.5,4.27151124 6.5,5.11523596 C6.5,5.95894382 5.834345,6.63208989 5,6.63208989 C4.165655,6.63208989 3.5,5.95894382 3.5,5.11523596 C3.5,4.27151124 4.16565,3.59838202 5,3.59838202 Z" id="Shape"></path>
                </g>
            </g>
        </g>
    </g>
</svg>