<?xml version="1.0" encoding="UTF-8"?>
<svg width="25px" height="38px" viewBox="0 0 25 38" version="1.1" xmlns="http://www.w3.org/2000/svg" xmlns:xlink="http://www.w3.org/1999/xlink">
    <!-- Generator: Sketch 49.1 (51147) - http://www.bohemiancoding.com/sketch -->
    <title>ico-map-location</title>
    <desc>Created with Sketch.</desc>
    <defs></defs>
    <g id="Page-1" stroke="none" stroke-width="1" fill="none" fill-rule="evenodd">
        <g id="Nobilux---Contacts" transform="translate(-585.000000, -578.000000)" fill="#1A9A70" fill-rule="nonzero">
            <g id="CONTACTS" transform="translate(0.000000, 150.000000)">
                <g id="Map" transform="translate(210.000000, 116.000000)">
                    <g id="ico-map-location" transform="translate(375.000000, 312.000000)">
                        <path d="M12.5,0.14765309 C5.61124583,0.14765309 0,5.82195084 0,12.7880899 C0,15.4358427 1.00427917,18.8945225 2.25260417,21.0175702 L11.4192708,36.6074579 C11.6430781,36.9967133 12.0547348,37.2362084 12.5,37.2362084 C12.9452652,37.2362084 13.3569219,36.9967133 13.5807292,36.6074579 L22.7473958,21.0175702 C23.9957417,18.8944803 25,15.4358427 25,12.7880899 C25,5.82195084 19.3887583,0.14765309 12.5,0.14765309 Z M12.5,8.99595506 C14.585875,8.99595506 16.25,10.6787781 16.25,12.7880899 C16.25,14.8973596 14.5858625,16.5802247 12.5,16.5802247 C10.4141375,16.5802247 8.75,14.8973596 8.75,12.7880899 C8.75,10.6787781 10.414125,8.99595506 12.5,8.99595506 Z" id="Shape"></path>
                    </g>
                </g>
            </g>
        </g>
    </g>
</svg>