<?xml version="1.0" encoding="UTF-8"?>
<svg width="20px" height="20px" viewBox="0 0 20 20" version="1.1" xmlns="http://www.w3.org/2000/svg" xmlns:xlink="http://www.w3.org/1999/xlink">
    <!-- Generator: Sketch 49.1 (51147) - http://www.bohemiancoding.com/sketch -->
    <title>youtube</title>
    <desc>Created with Sketch.</desc>
    <defs></defs>
    <g id="Page-1" stroke="none" stroke-width="1" fill="none" fill-rule="evenodd">
        <g id="Nobilux---Contacts" transform="translate(-988.000000, -62.000000)" fill="#E31E36">
            <g id="Nav-Header">
                <g id="youtube" transform="translate(988.000000, 62.000000)">
                    <path d="M16.0104184,9.36840356 C17.9861603,9.36840356 19.5884802,11.001647 19.5884802,13.0140144 L19.5884802,15.9432761 C19.5884802,17.9556435 17.9861603,19.5884802 16.0104184,19.5884802 L3.57806173,19.5884802 C1.60192048,19.5884802 -9.05941988e-14,17.9556435 -9.05941988e-14,15.9432761 L-9.05941988e-14,13.0140144 C-9.05941988e-14,11.001647 1.60192048,9.36840356 3.57806173,9.36840356 L16.0104184,9.36840356 Z M6.19001884,11.6488426 L6.19001884,10.6538455 L2.76252406,10.6538455 L2.76252406,11.6488426 L3.91753628,11.6488426 L3.91753628,17.4984167 L5.03420785,17.4984167 L5.03420785,11.6488426 L6.19001884,11.6488426 Z M9.45496523,17.4984167 L9.45496523,12.4481759 L8.46449831,12.4481759 L8.46449831,16.2837555 C8.37144235,16.3944011 8.2692006,16.4838939 8.15697431,16.5554882 C8.04554678,16.6262688 7.9528902,16.6612524 7.88100147,16.6612524 C7.78794551,16.6612524 7.7200506,16.6360317 7.67731674,16.5811156 C7.63777794,16.5278268 7.61581194,16.441995 7.61581194,16.3224001 L7.61581194,12.4485827 L6.62534503,12.4485827 L6.62534503,16.6697949 C6.62534503,16.9720364 6.68405415,17.1957684 6.79907612,17.3466858 C6.91609499,17.49801 7.08703041,17.5724517 7.31707434,17.5724517 C7.50318627,17.5724517 7.69449016,17.5211967 7.89258355,17.4113647 C8.09067693,17.3060072 8.28038329,17.1498016 8.46449831,16.9451886 L8.46449831,17.4984167 L9.45496523,17.4984167 Z M13.0509991,16.4558257 L13.0502004,16.4558257 L13.0502004,13.6534811 C13.0502004,13.2401871 12.9675283,12.9249284 12.8013855,12.7097389 C12.6360414,12.4945494 12.3972111,12.3879716 12.0836964,12.3879716 C11.929535,12.3879716 11.7773705,12.427023 11.6260048,12.5079733 C11.4778342,12.5872965 11.3360536,12.7056711 11.2018613,12.8582156 L11.2018613,10.6538455 L10.1994129,10.6538455 L10.1994129,17.49801 L11.2018613,17.49801 L11.2018613,17.111157 C11.3316604,17.2673626 11.4742397,17.3800422 11.6256054,17.4532636 C11.7761724,17.5272985 11.9495041,17.5630956 12.1444024,17.5630956 C12.4371493,17.5630956 12.6631994,17.4691282 12.8177602,17.277939 C12.9731197,17.0867499 13.0509991,16.8125765 13.0509991,16.4558257 Z M16.4868809,15.0951285 L16.4868809,13.8076527 C16.4868809,13.3288663 16.3650695,12.9627594 16.121846,12.7068914 C15.8786224,12.4514302 15.5299621,12.3241063 15.075865,12.3241063 C14.6321518,12.3241063 14.27151,12.4615998 13.9915433,12.7369935 C13.7107779,13.0123873 13.5693967,13.3715788 13.5693967,13.8080595 L13.5693967,16.076295 C13.5693967,16.5628103 13.6987965,16.9455954 13.9524039,17.2213959 C14.2068101,17.4988235 14.557068,17.6367238 15.00158,17.6367238 C15.4952159,17.6367238 15.866641,17.507366 16.1130596,17.2466166 C16.363472,16.9834264 16.4868809,16.5933192 16.4868809,16.0758882 L16.4868809,15.8167659 L15.4672592,15.8167659 L15.4672592,16.0465996 C15.4672592,16.343553 15.4329123,16.5347421 15.3690112,16.6226078 C15.3027139,16.7096598 15.18889,16.7531859 15.0243447,16.7531859 C14.8657901,16.7531859 14.7543626,16.7027445 14.6880652,16.599421 C14.6233654,16.4965043 14.5914148,16.3118237 14.5914148,16.0465996 L14.5914148,15.0951285 L16.4868809,15.0951285 Z M15.038982,13.292183 C15.1853937,13.292183 15.293746,13.3273813 15.3586021,13.3999778 C15.4261767,13.4681745 15.4603524,13.5857116 15.4603524,13.7494465 L15.4603524,14.143856 L14.6086793,14.143856 L14.6086793,13.7494465 C14.6086793,13.5857116 14.6405248,13.4684887 14.7088762,13.3999778 C14.7756741,13.327067 14.8851915,13.292183 15.038982,13.292183 Z M11.8170317,13.2221558 C11.954385,13.2221558 12.0604843,13.2639272 12.1353296,13.3466965 C12.2077074,13.4306262 12.2422513,13.5528463 12.2422513,13.7160643 L12.2422513,16.1956628 C12.2422513,16.3492115 12.2126422,16.4578946 12.1546577,16.5259665 C12.0958508,16.594812 12.004556,16.628848 11.8791285,16.628848 C11.7923574,16.628848 11.7109324,16.6102829 11.632386,16.5774073 C11.5534284,16.5433713 11.4724146,16.4838083 11.3905783,16.4064538 L11.3905783,13.415542 C11.4596662,13.3497907 11.5295766,13.2991235 11.6011319,13.2685685 C11.6714536,13.2372399 11.7446539,13.2221558 11.8170317,13.2221558 Z M5.07039543,7.66505746 L5.07039543,4.62847412 L3.55877668,-3.90798505e-14 L4.83709353,-3.90798505e-14 L5.66172293,3.0638729 L5.74164296,3.0638729 L6.52711962,-3.90798505e-14 L7.81714193,-3.90798505e-14 L6.33942864,4.48541069 L6.33942864,7.66505746 L5.07039543,7.66505746 Z M9.51208475,7.66505746 C8.99906413,7.66505746 8.58730311,7.52187678 8.27932267,7.23676048 C7.97134223,6.95039913 7.81714193,6.56858399 7.81714193,6.08591985 L7.81714193,3.14428323 C7.81714193,2.70312074 7.97554388,2.3540919 8.29066711,2.09387658 C8.60663066,1.83366127 9.03141678,1.7033461 9.56502545,1.7033461 C10.0507354,1.7033461 10.4490512,1.84113156 10.7599727,2.11462741 C11.0687935,2.38895328 11.2238341,2.74462238 11.2238341,3.17665451 L11.2238341,6.10833074 C11.2238341,6.59389999 11.0721548,6.97281001 10.7692164,7.25045602 C10.4641771,7.52685698 10.0456934,7.66505746 9.51208475,7.66505746 Z M9.02553448,3.10112152 L9.02511432,3.10112152 L9.02511432,6.1929941 C9.02511432,6.34862527 9.06713075,6.46815001 9.14990311,6.55322838 C9.23393598,6.64038183 9.3536828,6.68188348 9.50872343,6.68188348 C9.66712538,6.68188348 9.79317467,6.63913678 9.88687131,6.55198333 C9.98140828,6.46524489 10.0280465,6.34489012 10.0280465,6.19340911 L10.0280465,3.10112152 C10.0280465,2.97786163 9.98056795,2.87825768 9.88519065,2.80023459 C9.78939319,2.72387156 9.66376406,2.6869351 9.50872343,2.6869351 C9.36502724,2.6869351 9.24948206,2.72387156 9.1583064,2.80023459 C9.07049206,2.87825768 9.02553448,2.97786163 9.02553448,3.10112152 Z M12.7565021,7.66505746 C12.479094,7.66505746 12.2730682,7.57610876 12.1320132,7.39993018 C11.9935228,7.22632982 11.9234227,6.96464017 11.9234227,6.61443152 L11.9234227,1.7033461 L13.1155513,1.7033461 L13.1155513,6.20836137 C13.1155513,6.34629631 13.1433348,6.44684701 13.1924904,6.50829467 C13.240791,6.57232054 13.3232868,6.60325922 13.435276,6.60325922 C13.522901,6.60325922 13.6340353,6.56200765 13.7691061,6.47950451 C13.9016124,6.39614196 14.0251424,6.29129422 14.1362766,6.16367217 L14.1362766,1.7033461 L15.3301149,1.7033461 L15.3301149,7.57954639 L14.1362766,7.57954639 L14.1362766,6.92854504 C13.9178551,7.16789009 13.6883201,7.35137364 13.4485266,7.47684717 C13.2112977,7.60060188 12.9809078,7.66505746 12.7565021,7.66505746 Z" id="Combined-Shape"></path>
                </g>
            </g>
        </g>
    </g>
</svg>