<?xml version="1.0" encoding="UTF-8"?>
<svg width="76px" height="58px" viewBox="0 0 76 58" version="1.1" xmlns="http://www.w3.org/2000/svg" xmlns:xlink="http://www.w3.org/1999/xlink">
    <!-- Generator: Sketch 41.2 (35397) - http://www.bohemiancoding.com/sketch -->
    <title>arrow-thin-right -black</title>
    <desc>Created with Sketch.</desc>
    <defs></defs>
    <g id="Page-1" stroke="none" stroke-width="1" fill="none" fill-rule="evenodd">
        <g id="dripicons-v2-by-amit-jakhu" transform="translate(-1179.000000, -922.000000)" fill="#000000">
            <path d="M1253.8321,953.812586 L1228.8991,978.812586 C1228.1181,979.595586 1227.0921,979.987586 1226.0671,979.987586 C1225.0451,979.987586 1224.0231,979.598586 1223.2421,978.819586 C1221.6781,977.259586 1221.6751,974.727586 1223.2351,973.163586 L1241.3611,954.987586 L1183.0001,954.987586 C1180.7911,954.987586 1179.0001,953.196586 1179.0001,950.987586 C1179.0001,948.778586 1180.7911,946.987586 1183.0001,946.987586 L1241.3611,946.987586 L1223.2351,928.812586 C1221.6751,927.248586 1221.6781,924.715586 1223.2421,923.155586 C1224.8061,921.595586 1227.3391,921.598586 1228.8991,923.163586 L1253.8321,948.163586 C1255.3891,949.724586 1255.3891,952.250586 1253.8321,953.812586" id="arrow-thin-right"></path>
        </g>
    </g>
</svg>