<svg xmlns="http://www.w3.org/2000/svg" xmlns:xlink="http://www.w3.org/1999/xlink" width="48" height="51" viewBox="0 0 48 51">
    <defs>
        <path id="b" d="M0 74h1280v2708H0z"/>
        <filter id="a" width="103.9%" height="101.8%" x="-2%" y="-1.1%" filterUnits="objectBoundingBox">
            <feOffset dy="-5" in="SourceAlpha" result="shadowOffsetOuter1"/>
            <feGaussianBlur in="shadowOffsetOuter1" result="shadowBlurOuter1" stdDeviation="7.5"/>
            <feColorMatrix in="shadowBlurOuter1" values="0 0 0 0 0 0 0 0 0 0 0 0 0 0 0 0 0 0 0.0433650362 0"/>
        </filter>
    </defs>
    <g fill="none" fill-rule="evenodd">
        <g transform="translate(-185 -185)">
            <use fill="#000" filter="url(#a)" xlink:href="#b"/>
            <use fill="#FFF" xlink:href="#b"/>
        </g>
        <g fill="#000" fill-rule="nonzero" opacity=".25">
            <path d="M44.368 41.991v-2.228c0-2.049-1.705-3.715-3.8-3.715H25.017v-.923c0-.549-.455-.994-1.017-.994-.562 0-1.017.445-1.017.994v.923H7.433c-2.096 0-3.801 1.666-3.801 3.715v2.228C1.575 42.445.035 44.244.035 46.39c0 2.487 2.07 4.51 4.614 4.51s4.614-2.023 4.614-4.51c0-2.146-1.541-3.945-3.597-4.399v-2.228c0-.952.792-1.727 1.766-1.727h15.551v3.955c-2.056.454-3.597 2.253-3.597 4.399 0 2.487 2.07 4.51 4.614 4.51s4.614-2.023 4.614-4.51c0-2.146-1.54-3.945-3.597-4.399v-3.955h15.55c.975 0 1.767.775 1.767 1.727v2.228c-2.056.454-3.597 2.253-3.597 4.399 0 2.487 2.07 4.51 4.614 4.51 2.545 0 4.614-2.023 4.614-4.51 0-2.146-1.54-3.945-3.597-4.399zM7.228 46.39c0 1.39-1.157 2.522-2.58 2.522-1.422 0-2.58-1.131-2.58-2.522 0-1.39 1.158-2.522 2.58-2.522 1.423 0 2.58 1.131 2.58 2.522zm19.352 0c0 1.39-1.157 2.522-2.58 2.522s-2.58-1.131-2.58-2.522c0-1.39 1.157-2.522 2.58-2.522s2.58 1.131 2.58 2.522zm16.771 2.522c-1.422 0-2.58-1.131-2.58-2.522 0-1.39 1.158-2.522 2.58-2.522 1.423 0 2.58 1.131 2.58 2.522 0 1.39-1.157 2.522-2.58 2.522zM24 0C15.2 0 8.042 6.998 8.042 15.6c0 4.9 2.322 9.277 5.947 12.14.026.025.052.05.082.073.796.62 1.639 1.158 2.52 1.611v-.01A16.15 16.15 0 0 0 24 31.2c3.29 0 6.35-.979 8.893-2.653l.004.005a16.32 16.32 0 0 0 1.033-.74.994.994 0 0 0 .081-.073c3.625-2.863 5.947-7.24 5.947-12.14C39.958 6.998 32.8 0 24 0zm0 29.213c-3.035 0-5.846-.956-8.137-2.573 1.065-3.347 4.386-5.715 8.137-5.715 3.751 0 7.072 2.368 8.137 5.715A14.063 14.063 0 0 1 24 29.213zM20.3 15.6c0-1.84 1.53-3.336 3.412-3.336s3.413 1.497 3.413 3.336c0 1.84-1.53 3.337-3.413 3.337-1.881 0-3.412-1.497-3.412-3.337zm13.491 9.67a10.112 10.112 0 0 0-3.148-4.09 10.677 10.677 0 0 0-3.212-1.694 5.255 5.255 0 0 0 1.728-3.886c0-2.936-2.443-5.324-5.446-5.324-3.004 0-5.447 2.388-5.447 5.324 0 1.61.735 3.053 1.892 4.03a10.637 10.637 0 0 0-2.8 1.55 10.111 10.111 0 0 0-3.15 4.09c-2.55-2.47-4.132-5.892-4.132-9.67 0-7.505 6.246-13.612 13.924-13.612 7.678 0 13.924 6.107 13.924 13.612 0 3.778-1.582 7.2-4.133 9.67z"/>
            <ellipse cx="24" cy="32.665" rx="1.017" ry="1"/>
        </g>
    </g>
</svg>
