<svg xmlns="http://www.w3.org/2000/svg" xmlns:xlink="http://www.w3.org/1999/xlink" width="51" height="51" viewBox="0 0 51 51">
    <defs>
        <path id="b" d="M0 74h1280v2708H0z"/>
        <filter id="a" width="103.9%" height="101.8%" x="-2%" y="-1.1%" filterUnits="objectBoundingBox">
            <feOffset dy="-5" in="SourceAlpha" result="shadowOffsetOuter1"/>
            <feGaussianBlur in="shadowOffsetOuter1" result="shadowBlurOuter1" stdDeviation="7.5"/>
            <feColorMatrix in="shadowBlurOuter1" values="0 0 0 0 0 0 0 0 0 0 0 0 0 0 0 0 0 0 0.0433650362 0"/>
        </filter>
    </defs>
    <g fill="none" fill-rule="evenodd">
        <g transform="translate(-566 -185)">
            <use fill="#000" filter="url(#a)" xlink:href="#b"/>
            <use fill="#FFF" xlink:href="#b"/>
        </g>
        <g fill="#000" fill-rule="nonzero" opacity=".25">
            <path d="M50.819 12.117a.99.99 0 0 0-.815-.433H33.535a.996.996 0 0 0-.915.617l-3.514 8.37h-7.212l-3.514-8.37a.996.996 0 0 0-.916-.617H.996a.99.99 0 0 0-.815.433 1.04 1.04 0 0 0-.122.932l3.06 8.725v28.16c0 .564.446 1.02.996 1.02H46.852c.55 0 .996-.456.996-1.02V21.87l3.093-8.82a1.04 1.04 0 0 0-.122-.932zM2.412 13.724H16.81l2.916 6.947H4.848l-2.436-6.947zm43.444 35.19H30.758V31.42c0-.563-.446-1.02-.996-1.02s-.996.457-.996 1.02v17.495H5.111V22.71h40.745v26.204zm.296-28.243H31.275l2.916-6.947h14.397l-2.436 6.947zM25.594.045c-.55 0-.996.457-.996 1.02v5.11c0 .564.446 1.02.996 1.02s.996-.456.996-1.02v-5.11c0-.563-.446-1.02-.996-1.02zM34.435 3.974a.98.98 0 0 0-1.408 0l-3.53 3.614a1.038 1.038 0 0 0 0 1.442.981.981 0 0 0 1.41 0l3.528-3.613a1.038 1.038 0 0 0 0-1.443zM21.502 7.588l-3.529-3.614a.98.98 0 0 0-1.409 0 1.038 1.038 0 0 0 0 1.443l3.53 3.613a.982.982 0 0 0 1.408 0 1.038 1.038 0 0 0 0-1.442z"/>
            <ellipse cx="29.762" cy="26.585" rx="1" ry="1.02"/>
        </g>
    </g>
</svg>
