<svg xmlns="http://www.w3.org/2000/svg" xmlns:xlink="http://www.w3.org/1999/xlink" width="51" height="51" viewBox="0 0 51 51">
    <defs>
        <path id="b" d="M0 74h1280v2708H0z"/>
        <filter id="a" width="103.9%" height="101.8%" x="-2%" y="-1.1%" filterUnits="objectBoundingBox">
            <feOffset dy="-5" in="SourceAlpha" result="shadowOffsetOuter1"/>
            <feGaussianBlur in="shadowOffsetOuter1" result="shadowBlurOuter1" stdDeviation="7.5"/>
            <feColorMatrix in="shadowBlurOuter1" values="0 0 0 0 0 0 0 0 0 0 0 0 0 0 0 0 0 0 0.0433650362 0"/>
        </filter>
    </defs>
    <g fill="none" fill-rule="evenodd">
        <g transform="translate(-85 -274)">
            <use fill="#000" filter="url(#a)" xlink:href="#b"/>
            <use fill="#FFF" xlink:href="#b"/>
        </g>
        <g fill="#000" fill-rule="nonzero" opacity=".25">
            <ellipse cx="25.5" cy="23.063" rx="1" ry="1"/>
            <ellipse cx="22.971" cy="35.662" rx="1" ry="1"/>
            <ellipse cx="28.029" cy="35.662" rx="1" ry="1"/>
            <path d="M50.802 22.495A30.84 30.84 0 0 0 25.5 9.29h-.117l-.084.001h-.005A30.839 30.839 0 0 0 .198 22.495a.993.993 0 0 0 0 1.136 30.79 30.79 0 0 0 17.257 12.145 6.19 6.19 0 0 1 .572 2.595v1.93c0 1.178.598 2.218 1.507 2.838v4.658A3.213 3.213 0 0 0 22.749 51h5.502a3.213 3.213 0 0 0 3.215-3.203v-4.658a3.432 3.432 0 0 0 1.507-2.838v-1.93c0-.903.202-1.788.578-2.596A30.786 30.786 0 0 0 50.8 23.63a.993.993 0 0 0 0-1.136zm-48.555.568a28.82 28.82 0 0 1 13.886-10.217c-.202.178-.399.362-.591.552-2.623 2.599-4.105 6.043-4.175 9.698a14.057 14.057 0 0 0 3.75 9.823 28.81 28.81 0 0 1-12.87-9.856zm27.22 24.734c0 .668-.546 1.21-1.216 1.21h-5.502c-.67 0-1.215-.542-1.215-1.21v-4.059h7.932v4.06zm4.205-15.492a8.253 8.253 0 0 0-1.634 2.044 1 1 0 0 0-.117.213 8.163 8.163 0 0 0-.948 3.809v1.93a1.45 1.45 0 0 1-1.45 1.445h-8.045c-.8 0-1.45-.648-1.45-1.445v-1.93c0-2.305-.978-4.51-2.681-6.05a12.075 12.075 0 0 1-3.98-9.187c.123-6.445 5.487-11.761 11.958-11.852H25.502c3.21 0 6.23 1.231 8.518 3.48a11.977 11.977 0 0 1 3.615 8.607c0 3.392-1.444 6.649-3.963 8.936zm2.21.615a14.085 14.085 0 0 0 3.753-9.551c0-3.798-1.495-7.358-4.21-10.026a14.447 14.447 0 0 0-.517-.483 28.82 28.82 0 0 1 13.845 10.203 28.803 28.803 0 0 1-12.87 9.857z"/>
            <path d="M25.5 14.234c-4.887 0-8.863 3.96-8.863 8.829 0 4.868 3.976 8.828 8.863 8.828s8.863-3.96 8.863-8.828c0-4.868-3.976-8.829-8.863-8.829zm0 15.665c-3.784 0-6.863-3.067-6.863-6.836 0-3.77 3.079-6.836 6.863-6.836 3.784 0 6.863 3.066 6.863 6.836 0 3.77-3.079 6.836-6.863 6.836zM25.582 0c-.552 0-1 .446-1 .996v4.321c0 .55.448.996 1 .996s1-.446 1-.996V.997a.998.998 0 0 0-1-.997zM33.362 3.361a1.003 1.003 0 0 0-1.414 0L28.88 6.417a.993.993 0 0 0 0 1.408.999.999 0 0 0 1.415 0l3.067-3.055a.993.993 0 0 0 0-1.409zM22.12 6.417L19.052 3.36a1.003 1.003 0 0 0-1.414 0 .993.993 0 0 0 0 1.41l3.067 3.054a1 1 0 0 0 1.415 0 .993.993 0 0 0 0-1.408z"/>
        </g>
    </g>
</svg>
