<svg xmlns="http://www.w3.org/2000/svg" xmlns:xlink="http://www.w3.org/1999/xlink" width="51" height="51" viewBox="0 0 51 51">
    <defs>
        <path id="b" d="M0 74h1280v2708H0z"/>
        <filter id="a" width="103.9%" height="101.8%" x="-2%" y="-1.1%" filterUnits="objectBoundingBox">
            <feOffset dy="-5" in="SourceAlpha" result="shadowOffsetOuter1"/>
            <feGaussianBlur in="shadowOffsetOuter1" result="shadowBlurOuter1" stdDeviation="7.5"/>
            <feColorMatrix in="shadowBlurOuter1" values="0 0 0 0 0 0 0 0 0 0 0 0 0 0 0 0 0 0 0.0433650362 0"/>
        </filter>
    </defs>
    <g fill="none" fill-rule="evenodd">
        <g transform="translate(-285 -185)">
            <use fill="#000" filter="url(#a)" xlink:href="#b"/>
            <use fill="#FFF" xlink:href="#b"/>
        </g>
        <g fill="#000" fill-rule="nonzero" opacity=".25">
            <path d="M47.164 18.9l-2.233-.265a20.6 20.6 0 0 0-.838-2.021l1.393-1.766c1.363-1.73 1.36-4.065-.009-5.433l-3.893-3.893c-1.368-1.368-3.703-1.372-5.433-.008l-1.766 1.392a20.554 20.554 0 0 0-2.021-.837L32.1 3.836C31.84 1.649 30.187 0 28.252 0h-5.505c-1.935 0-3.59 1.649-3.848 3.836l-.264 2.233c-.687.243-1.363.523-2.02.837l-1.766-1.392c-1.73-1.364-4.065-1.36-5.433.008L5.523 9.415c-1.368 1.368-1.372 3.704-.009 5.433l1.393 1.766a20.567 20.567 0 0 0-.838 2.021l-2.233.264C1.649 19.158 0 20.812 0 22.747v5.505c0 1.935 1.649 3.589 3.836 3.848l2.233.264c.242.687.523 1.364.837 2.021l-1.392 1.766c-1.364 1.73-1.36 4.065.008 5.433l3.893 3.893c1.368 1.368 3.704 1.372 5.433.009l1.766-1.393a20.58 20.58 0 0 0 2.021.838l.264 2.233C19.158 49.351 20.812 51 22.747 51h5.505c1.935 0 3.589-1.649 3.848-3.836l.264-2.233a20.554 20.554 0 0 0 2.022-.838l1.766 1.393c1.73 1.363 4.065 1.36 5.433-.009l3.893-3.893c1.368-1.368 1.372-3.703.008-5.433l-1.392-1.766c.314-.657.595-1.334.837-2.021l2.233-.264C49.351 31.84 51 30.187 51 28.252v-5.505c0-1.935-1.649-3.59-3.836-3.848zm1.844 9.352c0 .926-.893 1.73-2.077 1.87l-2.86.337a.996.996 0 0 0-.832.688 18.556 18.556 0 0 1-1.202 2.901.996.996 0 0 0 .102 1.075l1.783 2.262c.739.937.802 2.136.148 2.79l-3.893 3.894c-.655.654-1.854.59-2.791-.148l-2.262-1.783a.996.996 0 0 0-1.075-.102c-.929.481-1.905.886-2.902 1.203a.996.996 0 0 0-.687.832l-.339 2.86c-.14 1.184-.943 2.077-1.869 2.077h-5.505c-.926 0-1.73-.893-1.87-2.078l-.337-2.859a.996.996 0 0 0-.688-.832 18.55 18.55 0 0 1-2.901-1.203.994.994 0 0 0-1.075.102l-2.262 1.783c-.936.739-2.136.802-2.79.148L6.93 40.176c-.655-.655-.592-1.854.147-2.79l1.783-2.263a.996.996 0 0 0 .103-1.075 18.562 18.562 0 0 1-1.203-2.901.996.996 0 0 0-.832-.687l-2.86-.339c-1.184-.14-2.077-.943-2.077-1.869v-5.505c0-.926.893-1.73 2.078-1.87l2.86-.337a.996.996 0 0 0 .831-.688c.317-.996.722-1.973 1.203-2.901a.996.996 0 0 0-.102-1.075l-1.783-2.262c-.739-.936-.802-2.136-.148-2.79l3.893-3.893c.655-.655 1.854-.592 2.791.147l2.262 1.783a.996.996 0 0 0 1.075.103 18.55 18.55 0 0 1 2.9-1.203.996.996 0 0 0 .687-.832l.339-2.86c.14-1.184.943-2.077 1.869-2.077h5.505c.926 0 1.73.893 1.87 2.078l.338 2.859a.996.996 0 0 0 .687.832c.996.317 1.973.722 2.901 1.203.347.18.768.14 1.075-.103l2.262-1.783c.937-.738 2.136-.802 2.79-.147l3.894 3.893c.654.654.59 1.854-.148 2.79l-1.783 2.262a.996.996 0 0 0-.102 1.075c.48.928.885 1.904 1.203 2.901a.996.996 0 0 0 .832.688l2.86.338c1.184.14 2.077.943 2.077 1.869v5.505z"/>
            <path d="M25.5 9.391c-8.883 0-16.109 7.227-16.109 16.11 0 3.548 1.132 6.915 3.273 9.734a16.23 16.23 0 0 0 8.282 5.72.996.996 0 1 0 .562-1.91C15.547 37.29 11.383 31.72 11.383 25.5c0-7.784 6.333-14.117 14.117-14.117 7.784 0 14.117 6.333 14.117 14.117A14.112 14.112 0 0 1 29.05 39.167a.996.996 0 1 0 .5 1.928A16.104 16.104 0 0 0 41.608 25.5c0-8.882-7.227-16.109-16.11-16.109z"/>
            <path d="M33.302 30.176l-6.806-5.17v-4.45a.996.996 0 0 0-1.992 0V25.5c0 .311.146.605.394.793l7.199 5.469a.994.994 0 0 0 1.396-.19.996.996 0 0 0-.191-1.396z"/>
            <circle cx="25.5" cy="16.338" r="1"/>
            <circle cx="25.137" cy="40.613" r="1"/>
        </g>
    </g>
</svg>
