<svg xmlns="http://www.w3.org/2000/svg" xmlns:xlink="http://www.w3.org/1999/xlink" width="52" height="43" viewBox="0 0 52 43">
    <defs>
        <path id="b" d="M0 74h1280v2708H0z"/>
        <filter id="a" width="103.9%" height="101.8%" x="-2%" y="-1.1%" filterUnits="objectBoundingBox">
            <feOffset dy="-5" in="SourceAlpha" result="shadowOffsetOuter1"/>
            <feGaussianBlur in="shadowOffsetOuter1" result="shadowBlurOuter1" stdDeviation="7.5"/>
            <feColorMatrix in="shadowBlurOuter1" values="0 0 0 0 0 0 0 0 0 0 0 0 0 0 0 0 0 0 0.0433650362 0"/>
        </filter>
    </defs>
    <g fill="none" fill-rule="evenodd">
        <g transform="translate(-381 -278)">
            <use fill="#000" filter="url(#a)" xlink:href="#b"/>
            <use fill="#FFF" xlink:href="#b"/>
        </g>
        <g fill="#FFA326" fill-rule="nonzero">
            <path d="M30.881 36.809h-3.92c-.559 0-1.012.449-1.012 1.003 0 .554.453 1.003 1.011 1.003h3.921c.606 0 1.098.489 1.098 1.09 0 .6-.492 1.089-1.098 1.089H20.326a5.326 5.326 0 0 1-4.094-1.906l-2.524-3.012a7.343 7.343 0 0 0-5.436-2.622v-5.926h3.721c1.835 0 3.573.697 4.893 1.962l5.448 5.22c.385.369.403.987.04 1.377a1 1 0 0 1-1.4.058l-4.278-3.892a1.016 1.016 0 0 0-1.427.062.998.998 0 0 0 .062 1.417l4.277 3.892a3.015 3.015 0 0 0 2.035.784c.813 0 1.624-.323 2.216-.96a2.993 2.993 0 0 0-.121-4.182l-5.448-5.22a9.057 9.057 0 0 0-6.297-2.524H8.076A2.51 2.51 0 0 0 5.767 24H1.011C.452 24 0 24.449 0 25.003v7.336c0 .553.452 1.003 1.01 1.003.559 0 1.011-.45 1.011-1.003v-6.333h3.747c.266 0 .483.216.483.48v8.04c0 .265-.217.48-.483.48h-1.05c-.558 0-1.01.45-1.01 1.004s.452 1.003 1.01 1.003h1.05c1.05 0 1.951-.645 2.323-1.558a5.325 5.325 0 0 1 4.063 1.905l2.524 3.012A7.347 7.347 0 0 0 20.326 43H30.88C32.601 43 34 41.611 34 39.904s-1.4-3.095-3.119-3.095zM50.99 9.267c-.559 0-1.011.449-1.011 1.003v6.724h-3.747a.483.483 0 0 1-.483-.48v-8.04c0-.265.217-.48.483-.48h.976c.558 0 1.01-.45 1.01-1.004s-.452-1.003-1.01-1.003h-.976c-1.05 0-1.951.646-2.323 1.558a5.325 5.325 0 0 1-4.063-1.905L37.322 2.63A7.347 7.347 0 0 0 31.674 0H21.12C19.399 0 18 1.389 18 3.096s1.4 3.095 3.119 3.095h4.316c.558 0 1.01-.449 1.01-1.003 0-.554-.452-1.003-1.01-1.003h-4.316a1.095 1.095 0 0 1-1.098-1.09c0-.6.492-1.089 1.098-1.089h10.555c1.587 0 3.08.695 4.094 1.905l2.524 3.012a7.343 7.343 0 0 0 5.435 2.623v5.926h-3.72a7.038 7.038 0 0 1-4.893-1.962l-5.448-5.22a.986.986 0 0 1-.04-1.378 1 1 0 0 1 1.4-.058l4.278 3.893c.411.374 1.05.346 1.428-.062a.998.998 0 0 0-.063-1.417l-4.277-3.892a3.035 3.035 0 0 0-4.251.176 2.993 2.993 0 0 0 .121 4.181l5.448 5.22a9.057 9.057 0 0 0 6.297 2.525h3.917A2.51 2.51 0 0 0 46.232 19h4.757c.559 0 1.011-.45 1.011-1.003v-7.728c0-.553-.453-1.002-1.01-1.002zM32.912 33.588a.992.992 0 0 0-1.314-.5.998.998 0 0 0 .397 1.912.989.989 0 0 0 .397-.083l.021-.01a1 1 0 0 0 .499-1.32zM34.804 32.405A1 1 0 1 0 33.998 34c.205 0 .41-.063.588-.193l.013-.01a.997.997 0 0 0 .205-1.392z"/>
            <path d="M29.978 34.792a.996.996 0 0 0-1.176-.771.999.999 0 1 0 1.176.771zM36.67 30.256a.997.997 0 0 0-1.428.097.996.996 0 0 0 1.503 1.309.996.996 0 0 0-.074-1.406zm-.551.855l-.116-.115.125.124-.01-.01zM39.29 25.043a1.001 1.001 0 0 0-.585 1.913.997.997 0 0 0 1.248-.66l.004-.013a.994.994 0 0 0-.667-1.24zM40.984 19.829a.998.998 0 0 0 0 0zM40.088 22.004a1 1 0 1 0-.177 1.99 1 1 0 0 0 .177-1.99zM38.494 27.13a1 1 0 0 0-1.359.374l-.014.024A.995.995 0 0 0 37.998 29a.99.99 0 0 0 .871-.516l-.866-.491.867.49a.99.99 0 0 0-.376-1.354zM20.895 8.553a.996.996 0 0 0-1.338-.447l-.01.004a.996.996 0 0 0-.44 1.339.998.998 0 0 0 1.342.445 1 1 0 0 0 .446-1.341zM22.972 7.763a.994.994 0 0 0-1.224-.729 1 1 0 0 0-.716 1.216.994.994 0 0 0 1.208.718.998.998 0 0 0 .732-1.205zM17.78 9.372a.997.997 0 0 0-1.401-.152l.617.782-.62-.78A.998.998 0 0 0 16.997 11a.992.992 0 0 0 .62-.217l.013-.01a.997.997 0 0 0 .15-1.401zM12.264 17.035a.999.999 0 0 0-1.236.736A.995.995 0 0 0 12 19a1 1 0 0 0 .969-.755.995.995 0 0 0-.704-1.21zM12.058 20.002a.998.998 0 0 0-1.058.974A.997.997 0 0 0 12 22a.999.999 0 0 0 .999-.96.997.997 0 0 0-.94-1.038zM13.466 14.114a.998.998 0 0 0-1.347.42l-.016.031A.994.994 0 0 0 12.997 16a1 1 0 0 0 .894-.551.995.995 0 0 0-.425-1.335zM15.64 12.23a.997.997 0 0 0-1.404.13l-.02.025a.996.996 0 0 0 .78 1.615.997.997 0 0 0 .78-.373.997.997 0 0 0-.136-1.397zM12.984 23.822a1 1 0 0 0-1.968.351l.002.01a.994.994 0 0 0 1.16.801c.543-.097.904-.62.806-1.162zM29.363 16c-1.3 0-2.505.539-3.363 1.448A4.614 4.614 0 0 0 22.637 16C20.08 16 18 18.09 18 20.66a4.658 4.658 0 0 0 1.689 3.596l5.691 4.527a.993.993 0 0 0 1.242-.002l5.932-4.748a.99.99 0 0 0 .083-.074A4.64 4.64 0 0 0 34 20.66C34 18.09 31.92 16 29.363 16zm1.9 6.502l-5.265 4.213-5.059-4.024a2.653 2.653 0 0 1-.942-2.031 2.65 2.65 0 0 1 2.64-2.653c1.072 0 2.03.643 2.44 1.639a.999.999 0 0 0 1.845 0 2.634 2.634 0 0 1 2.44-1.639 2.65 2.65 0 0 1 2.64 2.653c0 .693-.262 1.345-.739 1.842z"/>
            <circle cx="1" cy="36" r="1"/>
            <circle cx="50" cy="7" r="1"/>
        </g>
    </g>
</svg>
