<svg xmlns="http://www.w3.org/2000/svg" xmlns:xlink="http://www.w3.org/1999/xlink" width="51" height="50" viewBox="0 0 51 50">
    <defs>
        <path id="b" d="M0 74h1280v2708H0z"/>
        <filter id="a" width="103.9%" height="101.8%" x="-2%" y="-1.1%" filterUnits="objectBoundingBox">
            <feOffset dy="-5" in="SourceAlpha" result="shadowOffsetOuter1"/>
            <feGaussianBlur in="shadowOffsetOuter1" result="shadowBlurOuter1" stdDeviation="7.5"/>
            <feColorMatrix in="shadowBlurOuter1" values="0 0 0 0 0 0 0 0 0 0 0 0 0 0 0 0 0 0 0.0433650362 0"/>
        </filter>
    </defs>
    <g fill="none" fill-rule="evenodd">
        <g transform="translate(-473 -274)">
            <use fill="#000" filter="url(#a)" xlink:href="#b"/>
            <use fill="#FFF" xlink:href="#b"/>
        </g>
        <g fill="#000" fill-rule="nonzero" opacity=".25">
            <ellipse cx="14.703" cy="1.107" rx="1" ry="1.02"/>
            <ellipse cx="41.248" cy="18.596" rx="1" ry="1.02"/>
            <ellipse cx="21.53" cy="18.349" rx="1" ry="1.02"/>
            <path d="M50.915 18.183a.996.996 0 0 0-.911-.608h-4.525c-.55 0-.996.457-.996 1.02 0 .564.446 1.02.996 1.02h2.27l-5.934 6.676a1.04 1.04 0 0 0-.18 1.085l2.881 6.963H22.805l1.544-6.341h10.57c.46 0 .86-.322.969-.78l3.984-16.763a1.04 1.04 0 0 0-.185-.872.988.988 0 0 0-.783-.39H15.68l.376-1.585c.213-.894.045-1.783-.459-2.44-.491-.642-1.266-1.01-2.124-1.01-1.636 0-3.228 1.304-3.623 2.967l-.669 2.813-.009.034-3.982 16.764L.028 48.458a1.024 1.024 0 0 0 .66 1.212 4.772 4.772 0 0 0 3.866-.384 4.971 4.971 0 0 0 2.351-3.166l4.307-18.122h11.084l-1.733 7.115a1.04 1.04 0 0 0 .181.875.988.988 0 0 0 .785.392H46.02a.99.99 0 0 0 .83-.457c.185-.285.218-.646.087-.962l-3.219-7.78 7.023-7.898a1.04 1.04 0 0 0 .174-1.1zM11.787 7.608c.178-.75.966-1.408 1.687-1.408.175 0 .413.04.558.228.126.164.158.412.09.697l-.492 2.068h-2.22l.377-1.585zM4.97 45.638a2.89 2.89 0 0 1-1.387 1.865c-.427.244-.894.37-1.366.373l4.724-19.878h2.22L4.97 45.638zm2.456-19.68l1.565-6.588h8.342c.55 0 .996-.457.996-1.02 0-.564-.446-1.021-.996-1.021H9.476l1.449-6.095h26.711l-3.499 14.723H7.426z"/>
        </g>
    </g>
</svg>
