<svg xmlns="http://www.w3.org/2000/svg" xmlns:xlink="http://www.w3.org/1999/xlink" width="51" height="51" viewBox="0 0 51 51">
    <defs>
        <path id="b" d="M0 74h1280v2708H0z"/>
        <filter id="a" width="103.9%" height="101.8%" x="-2%" y="-1.1%" filterUnits="objectBoundingBox">
            <feOffset dy="-5" in="SourceAlpha" result="shadowOffsetOuter1"/>
            <feGaussianBlur in="shadowOffsetOuter1" result="shadowBlurOuter1" stdDeviation="7.5"/>
            <feColorMatrix in="shadowBlurOuter1" values="0 0 0 0 0 0 0 0 0 0 0 0 0 0 0 0 0 0 0.0433650362 0"/>
        </filter>
    </defs>
    <g fill="none" fill-rule="evenodd">
        <g transform="translate(-285 -366)">
            <use fill="#000" filter="url(#a)" xlink:href="#b"/>
            <use fill="#FFF" xlink:href="#b"/>
        </g>
        <g fill="#000" fill-rule="nonzero" opacity=".25">
            <path d="M50.711 22.11l-8.788-9.829a1.013 1.013 0 0 0-.756-.336H9.833c-.29 0-.564.122-.756.336L.29 22.11a.987.987 0 0 0 .096 1.413l.006.007 24.355 27.135a1.013 1.013 0 0 0 1.508 0L50.609 23.53l.006-.007a.987.987 0 0 0 .096-1.413zm-11.33-8.173l-4.48 7.136-7.178-7.136H39.38zm-6.619 7.836H18.238l7.262-7.22 7.262 7.22zm-9.485-7.836L16.1 21.074l-4.48-7.137h11.658zm-13.6.683l4.489 7.153H3.28l6.396-7.153zm-6.38 9.145h11.911l8.228 22.438-20.14-22.438zM27.6 46.162l5.75-15.377a.993.993 0 0 0-.597-1.28 1.011 1.011 0 0 0-1.295.59L25.51 46.01l-8.157-22.245h30.351L27.601 46.162zm9.233-24.389l4.49-7.153 6.396 7.153H36.834zM25.5 0c-.557 0-1.008.446-1.008.996v5.131c0 .55.451.996 1.008.996.557 0 1.008-.446 1.008-.996V.997C26.508.445 26.057 0 25.5 0zM34.678 3.937a1.017 1.017 0 0 0-1.425 0L29.58 7.565a.988.988 0 0 0 0 1.409c.197.194.455.292.713.292.258 0 .516-.098.713-.292l3.671-3.628a.988.988 0 0 0 0-1.409zM21.222 7.565l-3.671-3.628a1.017 1.017 0 0 0-1.426 0 .988.988 0 0 0 0 1.409l3.672 3.628c.197.194.455.292.713.292.257 0 .515-.098.712-.292a.988.988 0 0 0 0-1.409z"/>
            <ellipse cx="33.707" cy="26.731" rx="1.008" ry="1"/>
        </g>
    </g>
</svg>
