<svg xmlns="http://www.w3.org/2000/svg" xmlns:xlink="http://www.w3.org/1999/xlink" width="45" height="51" viewBox="0 0 45 51">
    <defs>
        <path id="b" d="M0 74h1280v2708H0z"/>
        <filter id="a" width="103.9%" height="101.8%" x="-2%" y="-1.1%" filterUnits="objectBoundingBox">
            <feOffset dy="-5" in="SourceAlpha" result="shadowOffsetOuter1"/>
            <feGaussianBlur in="shadowOffsetOuter1" result="shadowBlurOuter1" stdDeviation="7.5"/>
            <feColorMatrix in="shadowBlurOuter1" values="0 0 0 0 0 0 0 0 0 0 0 0 0 0 0 0 0 0 0.0433650362 0"/>
        </filter>
    </defs>
    <g fill="none" fill-rule="evenodd">
        <g transform="translate(-385 -364)">
            <use fill="#000" filter="url(#a)" xlink:href="#b"/>
            <use fill="#FFF" xlink:href="#b"/>
        </g>
        <g fill="#FFA326" fill-rule="nonzero">
            <path d="M29.012 9.598c-.567 0-1.027.446-1.027.996v6.161c0 1.87-1.57 3.393-3.5 3.393-.567 0-1.027.446-1.027.996s.46.996 1.028.996c3.062 0 5.554-2.416 5.554-5.385v-6.16c0-.55-.46-.997-1.028-.997z"/>
            <path d="M40.671 4.404h-5.293V1.99c.55-.019.99-.456.99-.994 0-.55-.46-.996-1.027-.996H9.484c-.567 0-1.027.446-1.027.996s.46.996 1.027.996h.196v2.412H4.329c-2.38 0-4.316 1.715-4.316 3.823v3.022c0 4.858 4.322 8.854 9.796 9.228.691 3.958 4.1 7.032 8.294 7.347.335 1.458.5 2.95.487 4.443a19.117 19.117 0 0 1-.482 4.094h-1.656c-1.133 0-2.055.894-2.055 1.992v6.928h-.893c-2.076 0-3.766 1.638-3.766 3.652v1.07c0 .551.46.997 1.028.997h23.527c.567 0 1.027-.446 1.027-.996v-1.071c0-2.014-1.69-3.652-3.766-3.652h-.893v-6.928c0-1.098-.922-1.992-2.055-1.992h-1.689a16.324 16.324 0 0 1 .005-8.534c4.211-.302 7.637-3.383 8.328-7.354 5.446-.399 9.737-4.383 9.737-9.224V8.227c0-2.108-1.936-3.823-4.316-3.823zm-12.065 33.95v6.927H22.53c-.567 0-1.027.446-1.027.997 0 .55.46.996 1.027.996h9.025c.944 0 1.711.744 1.711 1.659v.075H11.793v-.075c0-.915.768-1.66 1.711-1.66h3.202c.567 0 1.027-.445 1.027-.995s-.46-.997-1.027-.997h-.254v-6.928h12.154zM20.21 27.85h4.589a18.25 18.25 0 0 0 0 8.51H20.21a21.04 21.04 0 0 0 0-8.51zm13.113-8.857c0 3.785-3.176 6.865-7.08 6.865h-7.428c-3.904 0-7.08-3.08-7.08-6.865 0-.55-.46-.996-1.028-.996-.373 0-.699.193-.879.482-4.348-.35-7.76-3.46-7.76-7.23V8.226c0-1.01 1.014-1.83 2.26-1.83H9.68v5.1c0 .551.46.997 1.027.997.568 0 1.028-.446 1.028-.996V1.992h21.588v17.002zm9.609-7.745c0 3.712-3.305 6.78-7.554 7.211V6.396h5.293c1.247 0 2.261.822 2.261 1.831v3.022z"/>
            <ellipse cx="10.649" cy="15.45" rx="1.027" ry="1"/>
            <ellipse cx="29.012" cy="6.868" rx="1.027" ry="1"/>
        </g>
    </g>
</svg>
