<svg xmlns="http://www.w3.org/2000/svg" xmlns:xlink="http://www.w3.org/1999/xlink" width="50" height="51" viewBox="0 0 50 51">
    <defs>
        <path id="b" d="M0 74h1280v2708H0z"/>
        <filter id="a" width="103.9%" height="101.8%" x="-2%" y="-1.1%" filterUnits="objectBoundingBox">
            <feOffset dy="-5" in="SourceAlpha" result="shadowOffsetOuter1"/>
            <feGaussianBlur in="shadowOffsetOuter1" result="shadowBlurOuter1" stdDeviation="7.5"/>
            <feColorMatrix in="shadowBlurOuter1" values="0 0 0 0 0 0 0 0 0 0 0 0 0 0 0 0 0 0 0.0433650362 0"/>
        </filter>
    </defs>
    <g fill="none" fill-rule="evenodd">
        <g transform="translate(-567 -277)">
            <use fill="#000" filter="url(#a)" xlink:href="#b"/>
            <use fill="#FFF" xlink:href="#b"/>
        </g>
        <g fill="#FFA326" fill-rule="nonzero">
            <path d="M48.91 49.008h-2.257V17.286c0-1.477-1.24-2.678-2.766-2.678h-5.043c-1.525 0-2.766 1.201-2.766 2.678v31.722h-5.73v-17.35c0-1.476-1.24-2.677-2.765-2.677h-5.044c-1.525 0-2.766 1.2-2.766 2.677v17.35h-5.73v-8.985c0-1.477-1.24-2.678-2.765-2.678H6.234c-1.525 0-2.765 1.201-2.765 2.678v8.985H1.09c-.569 0-1.03.446-1.03.996S.523 51 1.092 51h47.818c.569 0 1.03-.446 1.03-.996s-.461-.996-1.03-.996zm-36.924 0h-6.46v-8.985c0-.378.318-.686.708-.686h5.044c.39 0 .708.308.708.686v8.985zm16.305 0h-6.46v-17.35c0-.378.318-.685.708-.685h5.044c.39 0 .708.307.708.685v17.35zm16.304 0h-6.46V17.286c0-.378.318-.686.709-.686h5.043c.39 0 .708.308.708.686v31.722zM46.65 1.047a.975.975 0 0 0-.298-.755 1.044 1.044 0 0 0-.781-.29L45.521 0h-6.224c-.568 0-1.029.446-1.029.996s.46.996 1.029.996h3.843L32.97 11.84l-3.836-3.713a1.046 1.046 0 0 0-.727-.292c-.273 0-.535.105-.728.292L9.185 26.033a.974.974 0 0 0 0 1.408c.2.195.464.292.727.292.263 0 .527-.097.728-.292L28.407 10.24l3.835 3.713a1.053 1.053 0 0 0 1.455 0L44.595 3.401v3.368c0 .55.46.996 1.03.996.567 0 1.028-.446 1.028-.996V1.096c0-.017-.002-.032-.003-.049z"/>
            <ellipse cx="6.444" cy="30.213" rx="1.029" ry="1"/>
        </g>
    </g>
</svg>
