<svg xmlns="http://www.w3.org/2000/svg" xmlns:xlink="http://www.w3.org/1999/xlink" width="51" height="38" viewBox="0 0 51 38">
    <defs>
        <path id="b" d="M0 74h1280v2708H0z"/>
        <filter id="a" width="103.9%" height="101.8%" x="-2%" y="-1.1%" filterUnits="objectBoundingBox">
            <feOffset dy="-5" in="SourceAlpha" result="shadowOffsetOuter1"/>
            <feGaussianBlur in="shadowOffsetOuter1" result="shadowBlurOuter1" stdDeviation="7.5"/>
            <feColorMatrix in="shadowBlurOuter1" values="0 0 0 0 0 0 0 0 0 0 0 0 0 0 0 0 0 0 0.0433650362 0"/>
        </filter>
    </defs>
    <g fill="none" fill-rule="evenodd">
        <g transform="translate(-473 -192)">
            <use fill="#000" filter="url(#a)" xlink:href="#b"/>
            <use fill="#FFF" xlink:href="#b"/>
        </g>
        <g fill="#000" fill-rule="nonzero" opacity=".25">
            <path d="M50.708 12.639l-9.44-9.734a.976.976 0 0 0-1.41 0 1.05 1.05 0 0 0 0 1.453l8.736 9.007-5.107 5.266a.393.393 0 0 1-.567 0L32.834 8.232a.423.423 0 0 1 0-.585l3.428-3.534a1.05 1.05 0 0 0 0-1.453.976.976 0 0 0-1.41 0l-3.427 3.534a2.528 2.528 0 0 0-.508 2.713l-1.16 1.195h-8.104L20.19 8.594c.056-.211.086-.431.086-.656 0-.66-.25-1.28-.701-1.746L16.24 2.754a.976.976 0 0 0-1.41 0 1.05 1.05 0 0 0 0 1.453l3.336 3.438a.42.42 0 0 1 0 .585l-.278.286L8.077 18.63l-.009.01a.394.394 0 0 1-.555-.011l-5.107-5.266 8.852-9.128a1.05 1.05 0 0 0 0-1.453.975.975 0 0 0-1.409 0L.292 12.637a1.05 1.05 0 0 0 0 1.453l5.812 5.992a2.35 2.35 0 0 0 1.693.722c.281 0 .562-.053.83-.155l3.27 3.373a3.575 3.575 0 0 0-.398 1.646c0 1.936 1.528 3.511 3.406 3.511h.013c0 1.933 1.52 3.505 3.393 3.512v.004c0 1.937 1.527 3.512 3.405 3.512.578 0 1.122-.15 1.6-.412l1.217 1.255a2.958 2.958 0 0 0 4.276 0 3.14 3.14 0 0 0 .882-2.071 3.025 3.025 0 0 0 2.024-.925 3.201 3.201 0 0 0 .901-2.288v-.006a3.28 3.28 0 0 0 2.254-1.11 3.498 3.498 0 0 0 .884-2.342 3.186 3.186 0 0 0 2.206-.982 3.386 3.386 0 0 0 .953-2.384 3.426 3.426 0 0 0-.347-1.5l3.268-3.082a2.34 2.34 0 0 0 3.062-.276l5.812-5.993a1.05 1.05 0 0 0 0-1.452zM14.905 27.125c-.78 0-1.413-.654-1.413-1.457s.634-1.457 1.413-1.457c.78 0 1.413.654 1.413 1.457s-.634 1.457-1.413 1.457zm4.47 3.023c-.04.04-.08.08-.118.122-.25.227-.576.367-.934.367-.779 0-1.413-.654-1.413-1.457 0-.804.634-1.457 1.413-1.457.78 0 1.413.653 1.413 1.457 0 .372-.137.71-.36.968zm3.354 3.562l-.014.013-.014.015a1.386 1.386 0 0 1-.985.415c-.779 0-1.413-.654-1.413-1.457 0-.372.137-.711.36-.969.041-.04.081-.08.12-.122.249-.227.575-.366.933-.366.78 0 1.413.653 1.413 1.457 0 .394-.153.751-.4 1.014zm13.822-7.836a1.236 1.236 0 0 1-1.786 0l-2.07-2.135a.976.976 0 0 0-1.41 0 1.05 1.05 0 0 0 0 1.453l2.07 2.135.007.006c.514.53.531 1.377.04 1.928a1.325 1.325 0 0 1-1.925.07l-1.993-1.946a.975.975 0 0 0-1.409.04 1.05 1.05 0 0 0 .039 1.453l2.17 2.118c.215.21.335.493.34.798a1.13 1.13 0 0 1-.319.808 1.065 1.065 0 0 1-1.536 0l-1.006-1.038a.976.976 0 0 0-1.41 0 1.04 1.04 0 0 0-.292.727c0 .263.098.526.292.726l1.046 1.078c.195.201.302.468.302.752 0 .283-.107.55-.302.75a1.008 1.008 0 0 1-1.457 0l-1.218-1.256a3.575 3.575 0 0 0 .398-1.645c0-1.932-1.521-3.504-3.393-3.511v-.005c0-1.936-1.528-3.512-3.406-3.512h-.013c0-1.936-1.527-3.511-3.405-3.511-.578 0-1.122.15-1.599.412l-3.114-3.211 8.81-9.083 1.533 1.581c.187.193.44.301.705.301h1.29l-3.934 4.056a3.314 3.314 0 0 0-.932 2.321c0 .877.33 1.701.932 2.321a3.115 3.115 0 0 0 4.503 0l3.336-3.44 3.652.042 6.458 6.57c.24.245.374.573.375.922.002.349-.13.677-.37.925zm.72-3.996l-6.07-6.175-.01-.01a.976.976 0 0 0-.816-.288l-4.337-.05a.984.984 0 0 0-.716.302l-3.632 3.745a1.165 1.165 0 0 1-1.684 0 1.24 1.24 0 0 1-.35-.868c0-.328.125-.637.35-.869l5.342-5.508h4.823a.981.981 0 0 0 .704-.3l1.328-1.37 8.191 8.446-3.123 2.945z"/>
            <ellipse cx="43.662" cy="13.838" rx="1" ry="1.025"/>
            <ellipse cx="7.236" cy="13.941" rx="1" ry="1.025"/>
            <ellipse cx="13.055" cy="1.144" rx="1" ry="1.025"/>
            <ellipse cx="37.927" cy="1.062" rx="1" ry="1.025"/>
        </g>
    </g>
</svg>
