<svg xmlns="http://www.w3.org/2000/svg" xmlns:xlink="http://www.w3.org/1999/xlink" width="46" height="41" viewBox="0 0 46 41">
    <defs>
        <path id="b" d="M0 74h1280v2708H0z"/>
        <filter id="a" width="103.9%" height="101.8%" x="-2%" y="-1.1%" filterUnits="objectBoundingBox">
            <feOffset dy="-5" in="SourceAlpha" result="shadowOffsetOuter1"/>
            <feGaussianBlur in="shadowOffsetOuter1" result="shadowBlurOuter1" stdDeviation="7.5"/>
            <feColorMatrix in="shadowBlurOuter1" values="0 0 0 0 0 0 0 0 0 0 0 0 0 0 0 0 0 0 0.0433650362 0"/>
        </filter>
    </defs>
    <g fill="none" fill-rule="evenodd">
        <g transform="translate(-186 -279)">
            <use fill="#000" filter="url(#a)" xlink:href="#b"/>
            <use fill="#FFF" xlink:href="#b"/>
        </g>
        <g fill="#000" fill-rule="nonzero" opacity=".25">
            <path d="M28.525.029H17.583c-1.69 0-3.065 1.358-3.065 3.027v1.392c0 .49.402.887.898.887a.893.893 0 0 0 .899-.887V3.056c0-.69.569-1.252 1.268-1.252h10.942c.7 0 1.269.562 1.269 1.252v1.392c0 .49.402.887.898.887a.893.893 0 0 0 .899-.887V3.056c0-1.67-1.375-3.027-3.066-3.027zM41.614 7.199H4.386C1.968 7.199 0 9.142 0 11.53v7.881c0 .393.262.74.644.851l.548.16v18.59c0 1.08.889 1.958 1.982 1.958h39.652c1.093 0 1.982-.878 1.982-1.957v-18.46l.543-.155a.89.89 0 0 0 .649-.853v-8.015C46 9.142 44.032 7.2 41.614 7.2zM8.017 39.196H3.174a.184.184 0 0 1-.185-.182v-4.785h2.584c1.348 0 2.444 1.084 2.444 2.415v2.552zm34.994-.182c0 .1-.083.182-.185.182h-4.843v-2.552c0-1.331 1.096-2.415 2.444-2.415h2.584v4.785zm0-6.56h-2.584c-2.338 0-4.241 1.88-4.241 4.19v2.552H9.814v-2.552c0-2.31-1.903-4.19-4.241-4.19H2.989V20.946l15.862 4.621v2.852c0 .49.403.888.899.888h6.5a.893.893 0 0 0 .899-.888v-2.828l15.862-4.525v11.388zm-22.363-4.922v-2.637-1.688h4.704v4.325h-4.704zm23.555-8.653L27.15 23.744v-1.425a.893.893 0 0 0-.899-.887h-6.5a.893.893 0 0 0-.899.887v1.398L1.797 18.749V11.53c0-1.41 1.162-2.557 2.59-2.557h3.63v3.072c0 .49.402.887.899.887a.893.893 0 0 0 .898-.887V8.974h26.047v3.072c0 .49.402.887.898.887a.893.893 0 0 0 .899-.887V8.974h3.956c1.428 0 2.59 1.147 2.59 2.557v7.348z"/>
            <ellipse cx="36.76" cy="15.47" rx="1" ry="1"/>
            <ellipse cx="8.915" cy="15.47" rx="1" ry="1"/>
        </g>
    </g>
</svg>
