<svg xmlns="http://www.w3.org/2000/svg" xmlns:xlink="http://www.w3.org/1999/xlink" width="51" height="51" viewBox="0 0 51 51">
    <defs>
        <path id="b" d="M0 74h1280v2708H0z"/>
        <filter id="a" width="103.9%" height="101.8%" x="-2%" y="-1.1%" filterUnits="objectBoundingBox">
            <feOffset dy="-5" in="SourceAlpha" result="shadowOffsetOuter1"/>
            <feGaussianBlur in="shadowOffsetOuter1" result="shadowBlurOuter1" stdDeviation="7.5"/>
            <feColorMatrix in="shadowBlurOuter1" values="0 0 0 0 0 0 0 0 0 0 0 0 0 0 0 0 0 0 0.0433650362 0"/>
        </filter>
    </defs>
    <g fill="none" fill-rule="evenodd">
        <g transform="translate(-85 -364)">
            <use fill="#000" filter="url(#a)" xlink:href="#b"/>
            <use fill="#FFF" xlink:href="#b"/>
        </g>
        <g fill="#000" fill-rule="nonzero" opacity=".25">
            <path d="M50.004 6.052H44.43a5.193 5.193 0 0 0-5.165-4.716A5.193 5.193 0 0 0 34.1 6.052H22.973v-.866A5.192 5.192 0 0 0 17.787 0a5.192 5.192 0 0 0-5.186 5.186v.866H7.048a.996.996 0 0 0-.996.996v5.553h-.866A5.192 5.192 0 0 0 0 17.787a5.192 5.192 0 0 0 5.186 5.186h.866v11.799c0 .55.446.996.996.996h2.193a3.501 3.501 0 0 1 3.497 3.497 3.501 3.501 0 0 1-3.497 3.497H7.048a.996.996 0 0 0-.996.996v6.246c0 .55.446.996.996.996h42.956c.55 0 .996-.446.996-.996V7.048a.996.996 0 0 0-.996-.996zM7.048 20.981H5.186a3.197 3.197 0 0 1-3.194-3.194 3.197 3.197 0 0 1 3.194-3.194h1.862c.55 0 .996-.445.996-.996V8.044h5.553c.55 0 .997-.445.997-.996V5.186a3.197 3.197 0 0 1 3.193-3.194 3.197 3.197 0 0 1 3.194 3.194v1.862c0 .55.446.996.996.996h5.553v5.553c0 .55.446.996.996.996h1.862a3.197 3.197 0 0 1 3.194 3.194 3.197 3.197 0 0 1-3.194 3.194h-1.862a.996.996 0 0 0-.996.996v5.553H18.2v-5.372a.996.996 0 0 0-1.991 0v5.372H8.044v-5.553a.996.996 0 0 0-.996-.996zm21.478 21.476a.996.996 0 0 0-.996.996v5.555h-6.358v-5.372a.996.996 0 0 0-1.992 0v5.372H8.044v-4.253h1.197a5.496 5.496 0 0 0 5.49-5.49 5.496 5.496 0 0 0-5.49-5.49H8.044v-4.253H27.53v5.555c0 .55.446.996.996.996h.59a3.195 3.195 0 0 1 3.191 3.192 3.196 3.196 0 0 1-3.192 3.192h-.589zm20.482-1.134h-5.372a.996.996 0 0 0 0 1.993h5.372v5.692H29.522v-4.575a5.191 5.191 0 0 0 4.777-5.168 5.191 5.191 0 0 0-4.777-5.168v-4.575h4.557v2.202a5.192 5.192 0 0 0 5.186 5.186 5.192 5.192 0 0 0 5.186-5.186v-2.202h4.557v11.801zm0-25.373h-5.372a.996.996 0 0 0 0 1.992h5.372v9.588h-5.553a.996.996 0 0 0-.996.996v3.198a3.197 3.197 0 0 1-3.194 3.194 3.197 3.197 0 0 1-3.194-3.194v-3.198a.996.996 0 0 0-.996-.996h-5.553v-4.557h.866a5.192 5.192 0 0 0 5.186-5.186 5.192 5.192 0 0 0-5.186-5.186h-.866V8.044h5.553c.55 0 .996-.445.996-.996v-.526a3.197 3.197 0 0 1 3.194-3.194 3.197 3.197 0 0 1 3.194 3.194v.526c0 .55.446.996.996.996h5.553v7.906z"/>
            <circle cx="20.176" cy="39.891" r="1"/>
            <circle cx="39.891" cy="42.319" r="1"/>
            <circle cx="39.891" cy="16.946" r="1"/>
            <circle cx="17.205" cy="18.413" r="1"/>
        </g>
    </g>
</svg>
