<svg xmlns="http://www.w3.org/2000/svg" xmlns:xlink="http://www.w3.org/1999/xlink" width="51" height="46" viewBox="0 0 51 46">
    <defs>
        <path id="b" d="M0 74h1280v2708H0z"/>
        <filter id="a" width="103.9%" height="101.8%" x="-2%" y="-1.1%" filterUnits="objectBoundingBox">
            <feOffset dy="-5" in="SourceAlpha" result="shadowOffsetOuter1"/>
            <feGaussianBlur in="shadowOffsetOuter1" result="shadowBlurOuter1" stdDeviation="7.5"/>
            <feColorMatrix in="shadowBlurOuter1" values="0 0 0 0 0 0 0 0 0 0 0 0 0 0 0 0 0 0 0.0433650362 0"/>
        </filter>
    </defs>
    <g fill="none" fill-rule="evenodd">
        <g transform="translate(-285 -277)">
            <use fill="#000" filter="url(#a)" xlink:href="#b"/>
            <use fill="#FFF" xlink:href="#b"/>
        </g>
        <g fill="#000" fill-rule="nonzero" opacity=".25">
            <path d="M25.412 31.201c-.55 0-.996.46-.996 1.027v12.704c0 .567.446 1.027.996 1.027s.996-.46.996-1.027V32.228c0-.567-.446-1.027-.996-1.027z"/>
            <path d="M28.666 10.858A5.236 5.236 0 0 0 30.17 7.17c0-2.853-2.251-5.173-5.018-5.173s-5.018 2.32-5.018 5.173c0 1.517.637 2.884 1.65 3.831a9.674 9.674 0 0 0-6.003 8.947v8.256c0 2.492 1.9 4.546 4.318 4.774v11.953c0 .567.446 1.027.996 1.027s.996-.46.996-1.027V20.236c0-.567-.446-1.026-.996-1.026s-.996.46-.996 1.026v10.675c-1.317-.213-2.326-1.345-2.326-2.706V19.95c0-4.194 3.428-7.606 7.64-7.606 4.213 0 7.64 3.412 7.64 7.606v8.256c0 1.313-.938 2.413-2.186 2.68V20.236c0-.567-.446-1.026-.996-1.026s-.997.46-.997 1.026v24.696c0 .567.446 1.027.997 1.027.55 0 .996-.46.996-1.027V32.963c2.351-.292 4.178-2.314 4.178-4.758V19.95a9.674 9.674 0 0 0-6.378-9.091zm-3.515-.568c-1.668 0-3.026-1.4-3.026-3.12 0-1.72 1.358-3.119 3.026-3.119 1.669 0 3.026 1.4 3.026 3.12 0 1.72-1.357 3.119-3.026 3.119zM43.913 1.15L39.141.065a.996.996 0 0 0-1.188.782c-.118.554.221 1.101.758 1.224l2.414.548-3.783 2.472a1.046 1.046 0 0 0-.308 1.417c.19.308.513.477.842.477a.97.97 0 0 0 .533-.16l3.801-2.484-.53 2.478c-.118.553.221 1.101.759 1.223a.97.97 0 0 0 .215.025c.457 0 .87-.327.972-.806l1.045-4.887c.119-.554-.22-1.102-.758-1.224z"/>
            <ellipse cx="34.685" cy="8.043" rx="1" ry="1.027"/>
            <path d="M45.84 40.42l-1.046-4.886a.996.996 0 0 0-1.187-.782c-.538.122-.877.67-.759 1.224l.53 2.477-3.801-2.484a.979.979 0 0 0-1.375.318 1.046 1.046 0 0 0 .308 1.416l3.783 2.472-2.413.549c-.538.122-.877.67-.759 1.224.103.479.515.805.972.805a.97.97 0 0 0 .216-.024l4.772-1.085c.537-.122.877-.67.758-1.224z"/>
            <ellipse cx="35.852" cy="34.752" rx="1" ry="1.027"/>
            <path d="M50.705 20.913l-3.47-3.547a.975.975 0 0 0-1.408.006 1.05 1.05 0 0 0 .005 1.452l1.755 1.794-4.478.004c-.55 0-.996.46-.996 1.027s.447 1.026.996 1.026h.001l4.501-.004-1.733 1.802a1.05 1.05 0 0 0 .006 1.452.978.978 0 0 0 1.409-.006l3.418-3.553a1.05 1.05 0 0 0-.006-1.453z"/>
            <ellipse cx="39.332" cy="21.652" rx="1" ry="1.027"/>
            <path d="M13.658 5.09L9.875 2.62l2.413-.55c.538-.121.877-.67.759-1.223a.996.996 0 0 0-1.188-.782L7.087 1.15c-.537.122-.877.67-.758 1.224L7.374 7.26c.103.48.515.806.972.806a.97.97 0 0 0 .215-.025c.538-.122.877-.67.759-1.223L8.79 4.34l3.801 2.484a.97.97 0 0 0 .533.16c.33 0 .652-.169.842-.477a1.046 1.046 0 0 0-.308-1.417z"/>
            <ellipse cx="16.315" cy="8.043" rx="1" ry="1.027"/>
            <path d="M12.798 36.287a.979.979 0 0 0-1.375-.318l-3.801 2.484.53-2.477c.118-.554-.221-1.102-.759-1.224a.996.996 0 0 0-1.187.782L5.161 40.42c-.119.554.22 1.102.758 1.224l4.772 1.085a.971.971 0 0 0 .216.025c.457 0 .87-.327.972-.806.118-.554-.221-1.102-.759-1.224l-2.413-.549 3.783-2.471c.464-.304.602-.938.308-1.417z"/>
            <ellipse cx="15.148" cy="34.752" rx="1" ry="1.027"/>
            <path d="M7.891 20.622l-4.478-.004 1.754-1.794c.39-.4.393-1.05.006-1.452a.975.975 0 0 0-1.409-.006l-3.47 3.547a1.05 1.05 0 0 0-.005 1.453l3.418 3.553a.978.978 0 0 0 1.409.006c.39-.4.393-1.05.006-1.452L3.389 22.67l4.5.004h.001c.55 0 .996-.46.997-1.026 0-.567-.446-1.027-.996-1.027z"/>
            <ellipse cx="11.668" cy="21.652" rx="1" ry="1.027"/>
        </g>
    </g>
</svg>
