<svg xmlns="http://www.w3.org/2000/svg" xmlns:xlink="http://www.w3.org/1999/xlink" width="33" height="51" viewBox="0 0 33 51">
    <defs>
        <path id="b" d="M0 74h1280v2708H0z"/>
        <filter id="a" width="103.9%" height="101.8%" x="-2%" y="-1.1%" filterUnits="objectBoundingBox">
            <feOffset dy="-5" in="SourceAlpha" result="shadowOffsetOuter1"/>
            <feGaussianBlur in="shadowOffsetOuter1" result="shadowBlurOuter1" stdDeviation="7.5"/>
            <feColorMatrix in="shadowBlurOuter1" values="0 0 0 0 0 0 0 0 0 0 0 0 0 0 0 0 0 0 0.0433650362 0"/>
        </filter>
    </defs>
    <g fill="none" fill-rule="evenodd">
        <g transform="translate(-391 -185)">
            <use fill="#000" filter="url(#a)" xlink:href="#b"/>
            <use fill="#FFF" xlink:href="#b"/>
        </g>
        <g fill="#FFA326" fill-rule="nonzero">
            <ellipse cx="16.5" cy="49.975" rx="1.048" ry="1.025"/>
            <path d="M28.034 4.626C24.88 1.584 20.696-.058 16.266.002a16.516 16.516 0 0 0-11.34 4.687C1.88 7.654.157 11.584.077 15.754c-.091 4.641 1.873 9.092 5.386 12.21a7.204 7.204 0 0 1 2.426 5.382v2.223c0 1.333.704 2.507 1.767 3.187v5.447c0 1.95 1.623 3.538 3.618 3.538h6.454c1.995 0 3.617-1.587 3.617-3.538v-5.447c1.063-.68 1.768-1.854 1.768-3.187v-2.223c0-2.046.893-4.015 2.45-5.404 3.41-3.039 5.366-7.367 5.366-11.876 0-4.334-1.738-8.396-4.894-11.44zm-6.727 39.577c0 .852-.709 1.545-1.58 1.545h-6.454c-.872 0-1.58-.693-1.58-1.545v-4.827H21.306v4.827zM26.19 26.47c-1.98 1.765-3.115 4.27-3.115 6.876v2.223c0 1-.833 1.815-1.856 1.815h-3.7v-3.852c0-.55-.457-.997-1.02-.997-.562 0-1.018.446-1.018.997v3.852h-3.7c-1.023 0-1.856-.814-1.856-1.815v-2.223a9.18 9.18 0 0 0-3.094-6.857c-3.078-2.732-4.798-6.631-4.72-10.697C2.258 8.288 8.62 2.098 16.295 1.993h.207c3.808 0 7.389 1.434 10.103 4.052 2.764 2.666 4.287 6.225 4.287 10.021 0 3.95-1.713 7.742-4.7 10.404z"/>
            <path d="M17.804 17.118h-2.608c-1.199 0-2.174-.954-2.174-2.127v-1.483c0-1.173.975-2.127 2.174-2.127h2.89c1.043 0 1.892.83 1.892 1.852 0 .55.456.996 1.019.996.562 0 1.018-.446 1.018-.996 0-2.12-1.763-3.844-3.93-3.844h-.567V7.302c0-.55-.456-.996-1.018-.996-.563 0-1.019.446-1.019.996v2.087h-.285c-2.322 0-4.211 1.848-4.211 4.119v1.483c0 2.271 1.889 4.119 4.211 4.119h2.608c1.199 0 2.174.954 2.174 2.126v1.483c0 1.173-.975 2.127-2.174 2.127h-2.89c-1.043 0-1.892-.83-1.892-1.851 0-.55-.456-.996-1.019-.996-.562 0-1.018.446-1.018.996 0 2.119 1.763 3.843 3.93 3.843h.566v2.088c0 .55.456.996 1.019.996s1.019-.446 1.019-.996v-2.088h.285c2.322 0 4.211-1.848 4.211-4.119v-1.483c0-2.27-1.89-4.118-4.211-4.118z"/>
        </g>
    </g>
</svg>
