<svg xmlns="http://www.w3.org/2000/svg" xmlns:xlink="http://www.w3.org/1999/xlink" width="38" height="51" viewBox="0 0 38 51">
    <defs>
        <path id="b" d="M0 74h1280v2708H0z"/>
        <filter id="a" width="103.9%" height="101.8%" x="-2%" y="-1.1%" filterUnits="objectBoundingBox">
            <feOffset dy="-5" in="SourceAlpha" result="shadowOffsetOuter1"/>
            <feGaussianBlur in="shadowOffsetOuter1" result="shadowBlurOuter1" stdDeviation="7.5"/>
            <feColorMatrix in="shadowBlurOuter1" values="0 0 0 0 0 0 0 0 0 0 0 0 0 0 0 0 0 0 0.0433650362 0"/>
        </filter>
    </defs>
    <g fill="none" fill-rule="evenodd">
        <g transform="translate(-92 -185)">
            <use fill="#000" filter="url(#a)" xlink:href="#b"/>
            <use fill="#FFF" xlink:href="#b"/>
        </g>
        <g fill="#000" fill-rule="nonzero" opacity=".25">
            <path d="M37.533 26.237l-3.173-5.653V16.71C34.36 7.496 26.673 0 17.224 0 7.775 0 .088 7.496.088 16.71v2.87c0 3.564 1.099 6.973 3.181 9.882v8.225c0 .55.458.996 1.022.996a1.01 1.01 0 0 0 1.021-.996v-8.543a.98.98 0 0 0-.195-.586 14.93 14.93 0 0 1-2.986-8.979v-2.87c0-8.115 6.77-14.717 15.093-14.717S32.317 8.594 32.317 16.71v4.13c0 .166.043.33.126.478l3.299 5.875c.249.445.07.83-.019.974a.993.993 0 0 1-.864.48h-.005l-1.51-.007h-.005c-.27 0-.53.104-.72.29a.984.984 0 0 0-.302.706v4.445c0 2.376-1.982 4.308-4.418 4.308h-3.067c-1.391 0-2.523 1.104-2.523 2.462v7.613L8.422 42.378a1.032 1.032 0 0 0-1.35.5.986.986 0 0 0 .512 1.317l15.327 6.717a1.044 1.044 0 0 0 .974-.072.99.99 0 0 0 .466-.836V40.85c0-.258.216-.469.481-.469H27.9c3.563 0 6.461-2.826 6.461-6.3v-3.445l.484.003h.015a3.038 3.038 0 0 0 2.62-1.452 2.883 2.883 0 0 0 .054-2.95z"/>
            <path d="M27.208 13.272l-.686-.079a9.808 9.808 0 0 0-.137-.323l.427-.529c.804-.994.784-2.354-.047-3.165l-1.79-1.746c-.832-.81-2.227-.83-3.246-.046l-.543.417c-.11-.047-.22-.092-.331-.134l-.081-.669c-.153-1.257-1.154-2.205-2.33-2.205h-2.531c-1.176 0-2.177.948-2.33 2.205l-.08.669c-.112.043-.222.087-.332.134l-.542-.417c-1.02-.784-2.414-.764-3.246.046l-1.79 1.746c-.83.81-.851 2.171-.048 3.165l.428.529a9.686 9.686 0 0 0-.138.323l-.685.08c-1.29.148-2.262 1.124-2.262 2.27v2.47c0 1.145.972 2.122 2.261 2.27l.686.08c.044.108.09.216.138.323l-.428.529c-.804.994-.783 2.354.048 3.165l1.79 1.746c.83.81 2.226.83 3.246.046l.542-.417c.11.047.22.092.332.134l.08.669c.153 1.257 1.154 2.205 2.33 2.205h2.532c1.175 0 2.176-.948 2.329-2.205l.08-.669c.112-.042.223-.087.333-.134l.542.417c1.02.784 2.414.764 3.246-.047l1.79-1.745c.831-.81.851-2.171.048-3.165l-.428-.53c.048-.106.094-.214.138-.323l.685-.079c1.29-.148 2.262-1.125 2.262-2.27v-2.47c0-1.146-.973-2.122-2.262-2.27zm.218 4.74c0 .1-.174.26-.458.293l-1.315.152a1.015 1.015 0 0 0-.853.687c-.136.417-.31.826-.517 1.215a.976.976 0 0 0 .105 1.075l.82 1.014c.177.219.185.452.112.523l-1.79 1.746c-.073.07-.312.063-.536-.11l-1.04-.799a1.043 1.043 0 0 0-1.103-.102c-.399.201-.818.37-1.246.504a1.003 1.003 0 0 0-.705.832l-.155 1.282c-.034.277-.198.447-.3.447h-2.532c-.103 0-.267-.17-.3-.447l-.156-1.282a1.003 1.003 0 0 0-.705-.833 8.083 8.083 0 0 1-1.246-.503 1.04 1.04 0 0 0-1.102.102l-1.04.8c-.224.172-.464.18-.536.109l-1.79-1.746c-.073-.07-.066-.304.111-.523l.82-1.014a.976.976 0 0 0 .105-1.075 7.659 7.659 0 0 1-.516-1.215 1.015 1.015 0 0 0-.853-.687l-1.315-.152c-.284-.033-.459-.192-.459-.293v-2.469c0-.1.175-.26.459-.292l1.315-.152c.398-.046.732-.314.853-.687.136-.417.31-.826.517-1.215a.976.976 0 0 0-.105-1.075l-.82-1.014c-.177-.22-.185-.452-.112-.523l1.79-1.746c.073-.07.312-.063.536.11l1.04.799c.316.242.747.282 1.103.102a8.07 8.07 0 0 1 1.245-.503c.383-.119.658-.444.705-.833l.156-1.282c.033-.277.197-.447.3-.447h2.532c.102 0 .266.17.3.447l.155 1.282c.047.388.323.714.705.833.428.132.847.302 1.246.503.356.18.787.14 1.102-.102l1.04-.8c.225-.173.464-.18.537-.109l1.79 1.746c.072.07.065.304-.112.523l-.82 1.014a.976.976 0 0 0-.105 1.075c.207.389.38.797.517 1.215.121.373.455.641.853.687l1.315.152c.284.033.458.192.458.292v2.47z"/>
            <path d="M17.179 11.739c-2.85 0-5.168 2.26-5.168 5.04 0 2.778 2.318 5.038 5.168 5.038s5.168-2.26 5.168-5.039c0-2.778-2.318-5.039-5.168-5.039zm0 8.086c-1.723 0-3.125-1.367-3.125-3.047 0-1.68 1.402-3.047 3.125-3.047s3.125 1.367 3.125 3.047c0 1.68-1.402 3.047-3.125 3.047z"/>
            <ellipse cx="4.383" cy="41.586" rx="1.022" ry="1"/>
        </g>
    </g>
</svg>
