<svg xmlns="http://www.w3.org/2000/svg" xmlns:xlink="http://www.w3.org/1999/xlink" width="51" height="50" viewBox="0 0 51 50">
    <defs>
        <path id="b" d="M0 74h1280v2708H0z"/>
        <filter id="a" width="103.9%" height="101.8%" x="-2%" y="-1.1%" filterUnits="objectBoundingBox">
            <feOffset dy="-5" in="SourceAlpha" result="shadowOffsetOuter1"/>
            <feGaussianBlur in="shadowOffsetOuter1" result="shadowBlurOuter1" stdDeviation="7.5"/>
            <feColorMatrix in="shadowBlurOuter1" values="0 0 0 0 0 0 0 0 0 0 0 0 0 0 0 0 0 0 0.0433650362 0"/>
        </filter>
    </defs>
    <g fill="none" fill-rule="evenodd">
        <g transform="translate(-184 -365)">
            <use fill="#000" filter="url(#a)" xlink:href="#b"/>
            <use fill="#FFF" xlink:href="#b"/>
        </g>
        <g fill="#000" fill-rule="nonzero" opacity=".25">
            <path d="M25.5 29.858c-5.353 0-9.709 4.498-9.709 10.027a10.14 10.14 0 0 0 3.602 7.79c.042.04.087.078.135.11a9.468 9.468 0 0 0 5.972 2.128c2.25 0 4.324-.795 5.972-2.127a.99.99 0 0 0 .135-.112 10.14 10.14 0 0 0 3.602-7.789c0-5.53-4.356-10.027-9.709-10.027zm0 17.997c-1.575 0-3.04-.49-4.262-1.33a4.576 4.576 0 0 1 4.262-2.943 4.576 4.576 0 0 1 4.262 2.943 7.498 7.498 0 0 1-4.262 1.33zm-1.755-7.97c0-.904.712-1.64 1.587-1.64s1.587.736 1.587 1.64c0 .904-.712 1.64-1.587 1.64s-1.587-.736-1.587-1.64zm7.577 5.223a6.634 6.634 0 0 0-3.135-2.995c.454-.62.724-1.392.724-2.228 0-2.038-1.605-3.697-3.579-3.697-1.973 0-3.579 1.659-3.579 3.697 0 .89.306 1.707.815 2.346a6.635 6.635 0 0 0-2.89 2.877 8.086 8.086 0 0 1-1.895-5.223c0-4.394 3.462-7.97 7.717-7.97 4.255 0 7.716 3.576 7.716 7.97a8.086 8.086 0 0 1-1.894 5.223zM9.709.087C4.355.087 0 4.586 0 10.115a10.14 10.14 0 0 0 3.602 7.789 1 1 0 0 0 .134.111 9.467 9.467 0 0 0 5.973 2.127c2.25 0 4.324-.795 5.972-2.127a.991.991 0 0 0 .134-.111 10.14 10.14 0 0 0 3.602-7.79C19.417 4.586 15.062.088 9.71.088zm0 17.998a7.5 7.5 0 0 1-4.263-1.33 4.576 4.576 0 0 1 4.263-2.943 4.576 4.576 0 0 1 4.262 2.942 7.498 7.498 0 0 1-4.262 1.33zm-1.755-7.97c0-.904.712-1.64 1.587-1.64s1.587.736 1.587 1.64c0 .904-.712 1.639-1.587 1.639s-1.587-.735-1.587-1.64zm7.576 5.222a6.634 6.634 0 0 0-3.135-2.995c.455-.62.725-1.391.725-2.227 0-2.039-1.605-3.697-3.58-3.697-1.973 0-3.578 1.658-3.578 3.697 0 .89.306 1.707.815 2.346a6.634 6.634 0 0 0-2.89 2.876 8.087 8.087 0 0 1-1.895-5.222c0-4.395 3.462-7.97 7.717-7.97 4.255 0 7.716 3.575 7.716 7.97a8.086 8.086 0 0 1-1.895 5.222zM41.291.087c-5.353 0-9.708 4.499-9.708 10.028a10.14 10.14 0 0 0 3.602 7.79c.041.04.086.077.134.11a9.468 9.468 0 0 0 5.972 2.127c2.25 0 4.324-.795 5.972-2.127.049-.033.094-.07.135-.111A10.14 10.14 0 0 0 51 10.114C51 4.587 46.645.088 41.291.088zm0 17.998a7.5 7.5 0 0 1-4.262-1.33 4.576 4.576 0 0 1 4.262-2.943 4.576 4.576 0 0 1 4.263 2.942 7.498 7.498 0 0 1-4.263 1.33zm-1.755-7.97c0-.904.712-1.64 1.588-1.64.875 0 1.587.736 1.587 1.64 0 .904-.712 1.639-1.587 1.639-.876 0-1.588-.735-1.588-1.64zm7.577 5.222a6.634 6.634 0 0 0-3.135-2.995c.454-.62.725-1.391.725-2.227 0-2.039-1.606-3.697-3.58-3.697-1.973 0-3.579 1.658-3.579 3.697 0 .89.306 1.707.815 2.346a6.634 6.634 0 0 0-2.89 2.876 8.086 8.086 0 0 1-1.894-5.222c0-4.395 3.461-7.97 7.716-7.97 4.255 0 7.717 3.575 7.717 7.97a8.086 8.086 0 0 1-1.895 5.222zM14.043 35.23l-.012-.01a.974.974 0 0 0-1.404.12 1.053 1.053 0 0 0 .108 1.443l.013.01a.973.973 0 0 0 1.403-.12 1.053 1.053 0 0 0-.108-1.443zM12.1 33.167l-.013-.016a.972.972 0 0 0-1.4-.124 1.054 1.054 0 0 0-.125 1.449l.002.002a.973.973 0 0 0 1.402.137c.424-.362.484-1.01.133-1.448zM10.484 30.807a.98.98 0 0 0-1.38-.371 1.046 1.046 0 0 0-.34 1.41l.002.002a.99.99 0 0 0 .86.508.967.967 0 0 0 .503-.141c.474-.287.633-.917.355-1.408zM8.418 25.443c-.116-.556-.645-.91-1.183-.79s-.88.667-.764 1.223l.005.021c.105.478.515.802.97.802a.975.975 0 0 0 .222-.026c.536-.126.872-.676.75-1.23zM9.244 28.208l-.006-.015a.985.985 0 0 0-1.295-.569c-.51.212-.757.812-.552 1.339l.002.004c.155.404.53.65.926.65a.967.967 0 0 0 .367-.073c.511-.21.761-.808.558-1.336zM38.373 35.34a.974.974 0 0 0-1.415-.11 1.052 1.052 0 0 0-.11 1.442.974.974 0 0 0 1.416.11 1.052 1.052 0 0 0 .11-1.442zM43.058 27.624a.985.985 0 0 0-1.296.57l-.006.014c-.203.527.048 1.12.558 1.33.12.05.244.073.366.073.396 0 .772-.246.93-.648.205-.527-.042-1.127-.552-1.339zM40.317 33.028a.974.974 0 0 0-1.404.123l-.012.016a1.048 1.048 0 0 0 .132 1.441.97.97 0 0 0 .636.238.99.99 0 0 0 .767-.368 1.052 1.052 0 0 0-.12-1.45zM43.77 24.657c-.536-.122-1.067.23-1.188.782v.002c-.122.554.214 1.105.75 1.231a.972.972 0 0 0 .222.026c.455 0 .866-.324.97-.801l.005-.021c.116-.554-.224-1.097-.76-1.219zM41.895 30.438a.978.978 0 0 0-1.38.37c-.277.49-.119 1.121.356 1.408a.969.969 0 0 0 .503.142.988.988 0 0 0 .86-.508 1.048 1.048 0 0 0-.34-1.412zM44.025 21.611c-.55-.032-1.02.404-1.05.97v.004c-.031.568.39 1.05.939 1.082l.056.002c.525 0 .964-.427.994-.975.03-.567-.39-1.051-.94-1.083zM31.698 1.947l-.01-.004a.99.99 0 0 0-1.254.663c-.169.54.118 1.12.642 1.295l.01.003c.101.034.204.05.306.05a1 1 0 0 0 .948-.712c.169-.54-.119-1.12-.642-1.295zM28.637 1.204L28.61 1.2a1.004 1.004 0 0 0-1.134.867c-.08.562.293 1.085.837 1.167.055.01.11.014.163.014.479 0 .901-.358.981-.862.09-.56-.278-1.09-.821-1.182zM25.488.971h-.025c-.55.009-.991.476-.983 1.044.008.563.45 1.014.993 1.014h.015c.55 0 .996-.46.996-1.029 0-.568-.446-1.029-.996-1.029zM20.529 2.638a.991.991 0 0 0-1.242-.687l-.014.005c-.526.167-.818.742-.656 1.285.131.442.527.725.954.725a.972.972 0 0 0 .293-.046c.527-.164.824-.739.665-1.282zM23.488 2.106c-.088-.56-.597-.942-1.14-.851l.145 1.018-.147-1.018c-.544.084-.92.607-.838 1.17.073.51.498.876.983.876a.969.969 0 0 0 .149-.011l.022-.003c.543-.091.914-.62.826-1.18zM8.004 22.358c-.116-.555-.645-.909-1.183-.79-.538.12-.88.668-.764 1.223l.004.022c.106.477.516.801.971.801a.97.97 0 0 0 .222-.026c.536-.125.872-.676.75-1.23z"/>
        </g>
    </g>
</svg>
