<svg xmlns="http://www.w3.org/2000/svg" width="14" height="14" viewBox="0 0 14 14">
    <g fill="#FFA326" fill-rule="nonzero">
        <path d="M6.94 0A6.948 6.948 0 0 0 0 6.94a6.948 6.948 0 0 0 6.94 6.94 6.948 6.948 0 0 0 6.94-6.94A6.948 6.948 0 0 0 6.94 0zm0 12.403A5.47 5.47 0 0 1 1.477 6.94 5.47 5.47 0 0 1 6.94 1.477a5.47 5.47 0 0 1 5.463 5.463 5.47 5.47 0 0 1-5.463 5.463z"/>
        <path d="M10.557 6.726H7.438v-3.75a.571.571 0 0 0-1.143 0v4.321c0 .316.256.572.572.572h3.69a.571.571 0 0 0 0-1.143z"/>
    </g>
</svg>
