<?xml version="1.0" encoding="UTF-8"?>
<svg width="12px" height="16px" viewBox="0 0 12 16" version="1.1" xmlns="http://www.w3.org/2000/svg" xmlns:xlink="http://www.w3.org/1999/xlink">
    <!-- Generator: Sketch 49.1 (51147) - http://www.bohemiancoding.com/sketch -->
    <title>ico-phone</title>
    <desc>Created with Sketch.</desc>
    <defs></defs>
    <g id="Page-1" stroke="none" stroke-width="1" fill="none" fill-rule="evenodd">
        <g id="Nobilux---Contacts" transform="translate(-697.000000, -12.000000)" fill="#A8A8A8" fill-rule="nonzero">
            <g id="Top-menu" transform="translate(453.000000, 7.000000)">
                <g id="ico-phone" transform="translate(244.000000, 4.000000)">
                    <path d="M10.788,14.9047619 L9.4,11.6438095 C9.18112794,11.1368892 8.57458071,10.8922315 8.04,11.0952381 L7.138,11.4380952 L6.2,11.3047619 L4.558,7.41142857 L5.13,6.70095238 L6.032,6.35428571 C6.56910949,6.147318 6.8286719,5.56511399 6.612,5.05333333 L5.232,1.8 C4.9759072,1.20227711 4.2621152,0.912511547 3.632,1.15047619 L2.952,1.40952381 C0.82,2.22857143 0.574,6.22666667 2.4,10.5104762 C3.236,12.5047619 4.4,14.2438095 5.674,15.4057143 C6.7,16.3447619 7.718,16.832381 8.616,16.832381 C8.89552249,16.8335139 9.17262811,16.7830605 9.432,16.6838095 L10.106,16.4285714 C10.733609,16.1846735 11.0378629,15.5048716 10.788,14.9047619 Z" id="Shape" transform="translate(6.026021, 8.949842) rotate(-5.000000) translate(-6.026021, -8.949842) "></path>
                </g>
            </g>
        </g>
    </g>
</svg>